Coordinates
version=1
nRows=11
nColumns=53
inDegrees=yes

Units are S.I. units (second, meters, Newtons, ...)
Angles are in degrees.

endheader
time	pelvis_tilt	pelvis_list	pelvis_rot	pelvis_tx	pelvis_ty	pelvis_tz	hip_flex_r	hip_add_r	hip_rot_r	pf_flex_r	pf_rot_r	pf_tilt_r	pf_tx_r	pf_ty_r	pf_tz_r	knee_flex_r	knee_add_r	knee_rot_r	knee_tx_r	knee_ty_r	knee_tz_r	ankle_flex_r	subt_angle_r	mtp_angle_r	hip_flex_l	hip_add_l	hip_rot_l	pf_l_r3	pf_l_tx	pf_l_ty	knee_flex_l	ankle_flex_l	subt_angle_l	mtp_angle_l	lumbar_ext	lumbar_latbend	lumbar_rot	neck_ext	neck_latbend	neck_rot	arm_add_r	arm_flex_r	arm_rot_r	elbow_flex_r	pro_sup_r	wrist_flex_r	arm_add_l	arm_flex_l	arm_rot_l	elbow_flex_l	pro_sup_l	wrist_flex_l
      1.18000000	     -5.01956485	      2.43026976	      0.58707397	     -0.08160475	      0.89250014	     -0.23165671	     28.75355107	     -1.52904697	     -6.70803262	     10.57354624	      0.49520278	     -3.36219141	      0.05336857	      0.00544556	      0.00475594	      3.34814034	      0.08628742	      0.71084760	      0.00246921	      0.00042397	     -0.00044732	     -2.79694485	    -10.25285403	      0.00000000	    -10.33863545	     -3.47583710	     -5.76097250	      0.06513700	      0.04435000	     -0.41871200	     -0.05775231	      0.19765932	      0.10114404	      0.00000000	    -11.82306789	     -3.80599523	     -4.88995764	      9.80054118	      0.00000000	      0.00000000	    -16.14936817	     11.42846135	     28.13075992	     12.82173043	     50.20284497	      0.00000000	    -32.05883828	     41.04375464	     21.70738804	     36.35839880	     44.75616340	      0.00000000
      1.18500000	     -5.08598020	      2.66419732	      0.79501832	     -0.07504899	      0.89079381	     -0.23162332	     28.89936180	     -1.75754047	     -6.93266345	      9.77987877	      0.55586411	     -3.25157425	      0.05335293	      0.00656254	      0.00487804	      1.89281313	     -0.02131528	      0.59489029	      0.00220841	      0.00035178	     -0.00036806	     -1.98332314	     -8.21065396	      0.00000000	    -10.78468566	     -3.66119811	     -5.73586612	      0.06513700	      0.04435000	     -0.41871200	     -0.05868144	      0.21544330	      0.11958148	      0.00000000	    -11.83667015	     -3.97328686	     -5.44572038	      9.84042534	      0.00000000	      0.00000000	    -16.15670717	     11.49541295	     28.18814507	     13.00434449	     50.12283256	      0.00000000	    -32.76196463	     40.74472613	     19.10487530	     38.67512491	     44.88469500	      0.00000000
      1.19000000	     -5.24278872	      2.94375248	      1.00708334	     -0.06858853	      0.88889839	     -0.23160662	     29.08658853	     -1.99434195	     -6.68036237	      8.78834640	      0.63731872	     -3.00648102	      0.05326983	      0.00767986	      0.00501048	      0.37999260	     -0.13354091	      0.46758146	      0.00190329	      0.00025317	     -0.00028675	     -2.22738370	     -7.66991031	      0.00000000	    -11.13222999	     -3.90445559	     -5.98299092	      0.06513700	      0.04435000	     -0.41871200	     -0.06028538	      0.21807378	      0.11870443	      0.00000000	    -11.69607722	     -4.25755872	     -5.69778061	      9.84483729	      0.00000000	      0.00000000	    -16.11594569	     11.34995323	     28.20565503	     12.94836637	     50.10710449	      0.00000000	    -33.25426942	     41.33203934	     18.74111415	     38.82676752	     44.89626138	      0.00000000
      1.19500000	     -5.42772853	      3.20006110	      1.17843650	     -0.06200720	      0.88690434	     -0.23158274	     29.45560376	     -2.22645886	     -6.71692610	      7.98075993	      0.70553652	     -2.75679277	      0.05317461	      0.00845591	      0.00510755	     -0.70490412	     -0.21404122	      0.37356039	      0.00166660	      0.00016938	     -0.00022884	     -2.22729092	     -7.38960449	      0.00000000	    -11.46632018	     -4.13207858	     -6.00079708	      0.06513700	      0.04435000	     -0.41871200	     -0.06285807	      0.22004121	      0.11861739	      0.00000000	    -11.49831818	     -4.45404462	     -5.92304460	      9.84609868	      0.00000000	      0.00000000	    -16.16539647	     11.31040422	     28.20462131	     12.92046278	     50.10266960	      0.00000000	    -33.49172780	     41.78280764	     18.57300511	     38.92614591	     44.90139696	      0.00000000
      1.20000000	     -5.47330466	      3.46642075	      1.42895172	     -0.05550495	      0.88517320	     -0.23152077	     29.45358796	     -2.47042860	     -6.37580166	      6.93363652	      0.79409787	     -2.42940154	      0.05304921	      0.00945227	      0.00523259	     -2.10072596	     -0.31760753	      0.25240533	      0.00136063	      0.00006050	     -0.00015438	     -2.54415423	     -6.32949700	      0.00000000	    -11.90033028	     -4.32456492	     -6.44466540	      0.06513700	      0.04435000	     -0.41871200	     -0.06211798	      0.22713900	      0.11965529	      0.00000000	    -11.51499049	     -4.76745155	     -6.16156248	      9.85112247	      0.00000000	      0.00000000	    -16.07332859	     11.08032822	     28.22741325	     12.86298090	     50.08717114	      0.00000000	    -34.19563394	     42.48344568	     18.03561662	     39.13176541	     44.91634121	      0.00000000
      1.20500000	     -5.53562259	      3.65298199	      1.67110529	     -0.04888528	      0.88341425	     -0.23152827	     29.62088885	     -2.67837625	     -6.50489328	      6.24403089	      0.85242185	     -2.21379101	      0.05296663	      0.01010844	      0.00531494	     -3.01997443	     -0.38581335	      0.17261606	      0.00115913	     -0.00001121	     -0.00010534	     -2.20741076	     -5.04217398	      0.00000000	    -12.29364835	     -4.43965713	     -6.57823122	      0.06513700	      0.04435000	     -0.41871200	     -0.06103562	      0.23837490	      0.12787049	      0.00000000	    -11.54824299	     -4.84923719	     -6.82280656	      9.92162603	      0.00000000	      0.00000000	    -15.97840777	     11.26833242	     28.45366777	     12.77862066	     49.98457043	      0.00000000	    -34.75753845	     42.02212987	     15.45089932	     41.11844044	     45.04069447	      0.00000000
      1.21000000	     -5.64492221	      3.87389681	      1.88459641	     -0.04229488	      0.88155788	     -0.23148247	     29.82592250	     -2.89229647	     -6.35934881	      5.61379028	      0.90572498	     -2.01674141	      0.05289115	      0.01070812	      0.00539019	     -3.86008897	     -0.44814764	      0.09969549	      0.00097498	     -0.00007674	     -0.00006052	     -2.30608530	     -4.52012070	      0.00000000	    -12.62932162	     -4.59485085	     -6.78706526	      0.06513700	      0.04435000	     -0.41871200	     -0.06007135	      0.24263612	      0.12883742	      0.00000000	    -11.47075955	     -5.03957565	     -7.01917360	      9.92662151	      0.00000000	      0.00000000	    -15.98443029	     11.16545698	     28.46957970	     12.73362295	     49.97436505	      0.00000000	    -35.18964893	     42.58648103	     15.20224149	     41.20085098	     45.04792211	      0.00000000
      1.21500000	     -5.74438429	      4.03975682	      2.11607698	     -0.03567419	      0.87974967	     -0.23144870	     30.02361692	     -3.06687864	     -6.25794219	      5.09381572	      0.94970227	     -1.85416734	      0.05282889	      0.01120288	      0.00545228	     -4.55321821	     -0.49957600	      0.03953300	      0.00082304	     -0.00013081	     -0.00002354	     -2.36063689	     -4.07442730	      0.00000000	    -12.94623712	     -4.68164990	     -6.98281209	      0.06513700	      0.04435000	     -0.41871200	     -0.05798918	      0.24688203	      0.13017109	      0.00000000	    -11.42064733	     -5.16627205	     -7.24293752	      9.92998425	      0.00000000	      0.00000000	    -15.96842340	     11.03861964	     28.47891965	     12.69769553	     49.96752329	      0.00000000	    -35.52787458	     43.05434061	     14.98213238	     41.28582806	     45.05393414	      0.00000000
      1.22000000	     -5.79574167	      4.18776609	      2.32631763	     -0.02895600	      0.87802509	     -0.23140117	     30.18066232	     -3.21744363	     -6.21599330	      4.69991335	      0.98301689	     -1.73101072	      0.05278171	      0.01157769	      0.00549932	     -5.07829245	     -0.53853513	     -0.00604258	      0.00070794	     -0.00017177	      0.00000447	     -2.43067681	     -3.56467992	      0.00000000	    -13.32049329	     -4.74674245	     -7.17860432	      0.06513700	      0.04435000	     -0.41871200	     -0.05563837	      0.25345045	      0.13232041	      0.00000000	    -11.41795572	     -5.28923276	     -7.46114765	      9.93428954	      0.00000000	      0.00000000	    -15.96250258	     10.92509082	     28.48479443	     12.66591790	     49.96174175	      0.00000000	    -35.92141483	     43.52608517	     14.68994142	     41.39301835	     45.06171975	      0.00000000
      1.22500000	     -5.84145721	      4.26988319	      2.43765345	     -0.02218676	      0.87631257	     -0.23128020	     30.43785040	     -3.27107656	     -6.20282384	      4.55971112	      0.99487462	     -1.68717541	      0.05276493	      0.01171109	      0.00551606	     -5.26518286	     -0.55240191	     -0.02226437	      0.00066698	     -0.00018634	      0.00001444	     -2.42405140	     -3.49980855	      0.00000000	    -13.69262342	     -4.76878503	     -7.16378164	      0.06513700	      0.04435000	     -0.41871200	     -0.05349422	      0.25431454	      0.13256506	      0.00000000	    -11.33541258	     -5.22939250	     -7.61580963	      9.93475958	      0.00000000	      0.00000000	    -15.98435572	     10.88779433	     28.48271253	     12.65280326	     49.96064643	      0.00000000	    -35.97457995	     43.71315018	     14.64247307	     41.43893025	     45.06344102	      0.00000000
      1.23000000	     -5.93190969	      4.34196719	      2.75511200	     -0.01536723	      0.87462498	     -0.23133006	     30.53307161	     -3.39656815	     -6.11308449	      4.24314202	      1.02164872	     -1.58819763	      0.05272702	      0.01201231	      0.00555386	     -5.68717140	     -0.58371235	     -0.05889228	      0.00057448	     -0.00021926	      0.00003696	     -2.48238175	     -3.21204025	      0.00000000	    -13.95459152	     -4.71835649	     -7.35530283	      0.06513700	      0.04435000	     -0.41871200	     -0.04930818	      0.25858850	      0.13399219	      0.00000000	    -11.25195940	     -5.32498590	     -7.90937409	      9.93632233	      0.00000000	      0.00000000	    -16.01716888	     10.77734514	     28.47853750	     12.61449411	     49.95717143	      0.00000000	    -36.27013315	     44.23618581	     14.42886025	     41.54401217	     45.06883121	      0.00000000
